# xmcd
#
# Track frame offsets: 
#        150
#        23025
#        43712
#        69521
#        92231
#        114453
#        134526
#        148794
#        166001
#        188609
#        211252
#        229898
#        250973
#        269804
#        288801
#        314091
#
# Disc length: 4385 seconds
#
# Revision: 0
# Processed by: cddbd v1.5.2PL0 Copyright (c) Steve Scherf et al.
# Submitted via: ExactAudioCopy v0.99pb1
#
DISCID=f0111f10
DTITLE=Elíades Ochoa - Guajiro sin fronteras
DYEAR=2004
DGENRE=Latin
TTITLE0=El guateque de Don Tomas 
TTITLE1=Píntate los labios María
TTITLE2=Chan Chan
TTITLE3=Estoy como nunca
TTITLE4=Saludo Compay
TTITLE5=Siboney 
TTITLE6=Toda una vida - Tema inédito
TTITLE7=Gonzalo no quiere que bailes
TTITLE8=Son a la casa de la Trova
TTITLE9=Yiri yiri bon
TTITLE10=El chicharron es pellejo
TTITLE11=Si sabes bailar mi son
TTITLE12=Ay Papacito
TTITLE13=Sublime ilusión 
TTITLE14=Hemingway delira
TTITLE15=Con dolor en el alma
EXTD=
EXTT0=
EXTT1=
EXTT2=
EXTT3=
EXTT4=
EXTT5=
EXTT6=
EXTT7=
EXTT8=
EXTT9=
EXTT10=
EXTT11=
EXTT12=
EXTT13=
EXTT14=
EXTT15=
PLAYORDER=
